<mxfile host="app.diagrams.net" modified="2024-03-12T12:40:46.385Z" agent="Mozilla/5.0 (Macintosh; Intel Mac OS X 10_15_7) AppleWebKit/537.36 (KHTML, like Gecko) Chrome/121.0.0.0 Safari/537.36" version="24.0.2" etag="pHn-tRaJvxxqHjbJBZS7" type="github">
  <diagram name="Page-1" id="2sGD2dzRC6a1GT2NI3ng">
    <mxGraphModel>
      <root>
        <mxCell id="0" />
        <mxCell id="1" parent="0" />
      </root>
    </mxGraphModel>
  </diagram>
</mxfile>
